<svg width="1600" height="1100" viewBox="0 0 1600 1100" fill="none" xmlns="http://www.w3.org/2000/svg">
  <defs>
    <linearGradient id="bg" x1="228" y1="126" x2="1365" y2="1004" gradientUnits="userSpaceOnUse">
      <stop stop-color="#FBFAF8"/>
      <stop offset="0.54" stop-color="#F7F4FA"/>
      <stop offset="1" stop-color="#F1EDF6"/>
    </linearGradient>
    <radialGradient id="purpleGlow" cx="0" cy="0" r="1" gradientUnits="userSpaceOnUse" gradientTransform="translate(1190 282) rotate(90) scale(314 362)">
      <stop stop-color="#8F82EA" stop-opacity="0.28"/>
      <stop offset="1" stop-color="#8F82EA" stop-opacity="0"/>
    </radialGradient>
    <radialGradient id="softGlow" cx="0" cy="0" r="1" gradientUnits="userSpaceOnUse" gradientTransform="translate(1108 782) rotate(90) scale(348 446)">
      <stop stop-color="#DAD4E7" stop-opacity="0.74"/>
      <stop offset="1" stop-color="#DAD4E7" stop-opacity="0"/>
    </radialGradient>
    <linearGradient id="wire" x1="326" y1="450" x2="1182" y2="588" gradientUnits="userSpaceOnUse">
      <stop stop-color="#D7D2DE" stop-opacity="0"/>
      <stop offset="0.34" stop-color="#BEB8CA" stop-opacity="0.66"/>
      <stop offset="0.7" stop-color="#7E6DDA"/>
      <stop offset="1" stop-color="#4D3FB0"/>
    </linearGradient>
    <linearGradient id="wireSoft" x1="432" y1="738" x2="1198" y2="534" gradientUnits="userSpaceOnUse">
      <stop stop-color="#CFC9D8" stop-opacity="0"/>
      <stop offset="0.38" stop-color="#C7C0D3" stop-opacity="0.7"/>
      <stop offset="1" stop-color="#6B5CCF"/>
    </linearGradient>
    <linearGradient id="panel" x1="1168" y1="96" x2="1168" y2="438" gradientUnits="userSpaceOnUse">
      <stop stop-color="#FFFFFF" stop-opacity="0.92"/>
      <stop offset="1" stop-color="#F3EFF7" stop-opacity="0.92"/>
    </linearGradient>
    <linearGradient id="panel2" x1="1120" y1="618" x2="1120" y2="930" gradientUnits="userSpaceOnUse">
      <stop stop-color="#FFFFFF" stop-opacity="0.94"/>
      <stop offset="1" stop-color="#F0ECF5" stop-opacity="0.92"/>
    </linearGradient>
    <linearGradient id="metal" x1="0" y1="0" x2="0" y2="1">
      <stop stop-color="#FFFFFF" stop-opacity="0.9"/>
      <stop offset="1" stop-color="#E6E1EB" stop-opacity="0.96"/>
    </linearGradient>
    <linearGradient id="beam" x1="756" y1="112" x2="1298" y2="1120" gradientUnits="userSpaceOnUse">
      <stop stop-color="#FFFFFF" stop-opacity="0"/>
      <stop offset="0.48" stop-color="#FFFFFF" stop-opacity="0.72"/>
      <stop offset="1" stop-color="#FFFFFF" stop-opacity="0"/>
    </linearGradient>
    <filter id="blur48" x="748" y="-18" width="754" height="690" filterUnits="userSpaceOnUse" color-interpolation-filters="sRGB">
      <feGaussianBlur stdDeviation="44"/>
    </filter>
    <filter id="blur64" x="594" y="224" width="948" height="824" filterUnits="userSpaceOnUse" color-interpolation-filters="sRGB">
      <feGaussianBlur stdDeviation="68"/>
    </filter>
    <filter id="shadow" x="836" y="66" width="644" height="426" filterUnits="userSpaceOnUse" color-interpolation-filters="sRGB">
      <feOffset dy="22"/>
      <feGaussianBlur stdDeviation="22"/>
      <feColorMatrix type="matrix" values="0 0 0 0 0.0666667 0 0 0 0 0.0745098 0 0 0 0 0.105882 0 0 0 0.12 0"/>
      <feBlend in2="SourceGraphic" result="shape"/>
    </filter>
    <filter id="shadowSoft" x="752" y="582" width="736" height="438" filterUnits="userSpaceOnUse" color-interpolation-filters="sRGB">
      <feOffset dy="18"/>
      <feGaussianBlur stdDeviation="18"/>
      <feColorMatrix type="matrix" values="0 0 0 0 0.0666667 0 0 0 0 0.0745098 0 0 0 0 0.105882 0 0 0 0.1 0"/>
      <feBlend in2="SourceGraphic" result="shape"/>
    </filter>
    <filter id="grain" x="0" y="0" width="1600" height="1100" filterUnits="userSpaceOnUse" color-interpolation-filters="sRGB">
      <feTurbulence type="fractalNoise" baseFrequency="0.95" numOctaves="2" stitchTiles="stitch"/>
      <feColorMatrix type="saturate" values="0"/>
      <feComponentTransfer>
        <feFuncA type="table" tableValues="0 0 0.028 0"/>
      </feComponentTransfer>
    </filter>
    <clipPath id="panelClip">
      <rect x="918" y="108" width="500" height="342" rx="34"/>
    </clipPath>
    <clipPath id="panelClip2">
      <rect x="812" y="622" width="616" height="302" rx="34"/>
    </clipPath>
  </defs>

  <rect width="1600" height="1100" fill="url(#bg)"/>
  <g opacity="0.42">
    <path d="M0 136H1600" stroke="#ECE7F0"/>
    <path d="M0 320H1600" stroke="#ECE7F0"/>
    <path d="M0 504H1600" stroke="#ECE7F0"/>
    <path d="M0 688H1600" stroke="#ECE7F0"/>
    <path d="M0 872H1600" stroke="#ECE7F0"/>
    <path d="M220 0V1100" stroke="#ECE7F0"/>
    <path d="M520 0V1100" stroke="#ECE7F0"/>
    <path d="M820 0V1100" stroke="#ECE7F0"/>
    <path d="M1120 0V1100" stroke="#ECE7F0"/>
    <path d="M1420 0V1100" stroke="#ECE7F0"/>
  </g>

  <rect width="1600" height="1100" fill="url(#purpleGlow)"/>
  <rect width="1600" height="1100" fill="url(#softGlow)"/>

  <g opacity="0.9">
    <path d="M332 446H918C968 446 1008 486 1008 536V558" stroke="url(#wire)" stroke-width="8" stroke-linecap="round"/>
    <path d="M438 736H930C979 736 1018 697 1018 648V632" stroke="url(#wireSoft)" stroke-width="6" stroke-linecap="round"/>
    <path d="M608 572H918" stroke="#D9D3E0" stroke-width="3" stroke-linecap="round"/>
    <path d="M650 626H884" stroke="#D9D3E0" stroke-width="2" stroke-linecap="round" opacity="0.72"/>
    <path d="M690 354H930C984 354 1028 398 1028 452V488" stroke="#CFC8D8" stroke-width="4" stroke-linecap="round" opacity="0.72"/>
  </g>

  <g opacity="0.5">
    <path d="M300 442C388 442 448 384 448 290V208" stroke="#D9D4DE" stroke-width="2"/>
    <path d="M356 736C470 736 536 780 600 842" stroke="#D9D4DE" stroke-width="2"/>
    <path d="M680 148V226" stroke="#D9D4DE" stroke-width="2"/>
    <circle cx="448" cy="208" r="10" fill="#F5F2F8" stroke="#D9D3E1"/>
    <circle cx="600" cy="842" r="10" fill="#F5F2F8" stroke="#D9D3E1"/>
    <circle cx="680" cy="148" r="10" fill="#F5F2F8" stroke="#D9D3E1"/>
  </g>

  <g opacity="0.62">
    <rect x="458" y="238" width="88" height="286" rx="28" fill="url(#metal)" stroke="#DDD7E4"/>
    <rect x="568" y="188" width="78" height="380" rx="24" fill="url(#metal)" stroke="#DDD7E4"/>
    <rect x="666" y="296" width="54" height="238" rx="20" fill="url(#metal)" stroke="#DDD7E4"/>
  </g>

  <g filter="url(#blur48)">
    <path d="M836 88L1234 468" stroke="url(#beam)" stroke-width="40" stroke-linecap="round"/>
  </g>

  <g filter="url(#shadow)">
    <rect x="918" y="108" width="500" height="342" rx="34" fill="url(#panel)" stroke="#DCD6E2"/>
    <g clip-path="url(#panelClip)">
      <rect x="918" y="108" width="500" height="342" fill="url(#purpleGlow)" opacity="0.32"/>
      <path d="M918 186H1418" stroke="#ECE7F0"/>
      <path d="M918 264H1418" stroke="#ECE7F0"/>
      <path d="M918 342H1418" stroke="#ECE7F0"/>
      <path d="M1086 108V450" stroke="#ECE7F0"/>
      <path d="M1232 108V450" stroke="#ECE7F0"/>
      <rect x="954" y="146" width="118" height="22" rx="11" fill="#ECE8F4"/>
      <rect x="1246" y="146" width="124" height="22" rx="11" fill="#5C4CD0" fill-opacity="0.14"/>
      <rect x="952" y="214" width="96" height="18" rx="9" fill="#D9D3E1"/>
      <rect x="952" y="286" width="210" height="16" rx="8" fill="#E7E2EB"/>
      <rect x="952" y="316" width="160" height="16" rx="8" fill="#E7E2EB"/>
      <rect x="952" y="364" width="120" height="16" rx="8" fill="#E7E2EB"/>
      <rect x="1108" y="214" width="86" height="18" rx="9" fill="#CFC6F6"/>
      <rect x="1104" y="284" width="98" height="98" rx="24" fill="#F7F5FB" stroke="#E4DEE8"/>
      <path d="M1128 350L1152 326L1170 342L1194 308" stroke="#4D3FB0" stroke-width="4" stroke-linecap="round" stroke-linejoin="round"/>
      <circle cx="1128" cy="350" r="6" fill="#4D3FB0"/>
      <circle cx="1152" cy="326" r="6" fill="#796AE0"/>
      <circle cx="1170" cy="342" r="6" fill="#A79CEB"/>
      <circle cx="1194" cy="308" r="6" fill="#4D3FB0"/>
      <rect x="1256" y="210" width="120" height="160" rx="26" fill="#F9F7FB" stroke="#E3DEE8"/>
      <rect x="1280" y="238" width="72" height="14" rx="7" fill="#E8E2EF"/>
      <rect x="1280" y="272" width="56" height="12" rx="6" fill="#E8E2EF"/>
      <rect x="1280" y="302" width="74" height="30" rx="15" fill="#5C4CD0" fill-opacity="0.14"/>
      <rect x="1280" y="344" width="54" height="30" rx="15" fill="#EEEAF3"/>
    </g>
  </g>

  <g filter="url(#blur64)">
    <circle cx="1048" cy="584" r="156" fill="#A99DED" fill-opacity="0.24"/>
  </g>

  <g>
    <circle cx="1032" cy="584" r="124" fill="white" fill-opacity="0.28" stroke="#D8D2DD"/>
    <circle cx="1032" cy="584" r="88" fill="white" fill-opacity="0.4" stroke="#D5CFDB"/>
    <circle cx="1032" cy="584" r="52" fill="#FBFAFE" stroke="#CFC7F7"/>
    <circle cx="1032" cy="584" r="18" fill="#5C4CD0"/>
    <circle cx="1032" cy="584" r="6" fill="#FBFAF8"/>
    <path d="M1032 460V410" stroke="#6B5CD1" stroke-width="5" stroke-linecap="round"/>
    <path d="M1152 584H1208" stroke="#6B5CD1" stroke-width="5" stroke-linecap="round"/>
    <path d="M1016 704H1016C1016 733.823 991.823 758 962 758H910" stroke="#6B5CD1" stroke-width="5" stroke-linecap="round"/>
    <path d="M944 520H900C868 520 842 494 842 462V414" stroke="#B9B2C6" stroke-width="4" stroke-linecap="round"/>
    <circle cx="1032" cy="410" r="12" fill="#FBFAF8" stroke="#6B5CD1" stroke-width="4"/>
    <circle cx="1208" cy="584" r="12" fill="#FBFAF8" stroke="#6B5CD1" stroke-width="4"/>
    <circle cx="910" cy="758" r="12" fill="#FBFAF8" stroke="#6B5CD1" stroke-width="4"/>
    <circle cx="842" cy="414" r="12" fill="#FBFAF8" stroke="#B9B2C6" stroke-width="4"/>
  </g>

  <g filter="url(#shadowSoft)">
    <rect x="812" y="622" width="616" height="302" rx="34" fill="url(#panel2)" stroke="#DDD7E4"/>
    <g clip-path="url(#panelClip2)">
      <path d="M812 702H1428" stroke="#ECE7F0"/>
      <path d="M812 778H1428" stroke="#ECE7F0"/>
      <path d="M812 854H1428" stroke="#ECE7F0"/>
      <path d="M982 622V924" stroke="#ECE7F0"/>
      <path d="M1162 622V924" stroke="#ECE7F0"/>
      <rect x="846" y="658" width="128" height="20" rx="10" fill="#ECE8F4"/>
      <rect x="1008" y="658" width="108" height="20" rx="10" fill="#5C4CD0" fill-opacity="0.12"/>
      <rect x="1188" y="658" width="188" height="20" rx="10" fill="#ECE8F4"/>
      <path d="M864 870L930 808L998 834L1072 742L1158 756L1236 690L1318 706L1390 650" stroke="#4D3FB0" stroke-width="6" stroke-linecap="round" stroke-linejoin="round"/>
      <circle cx="864" cy="870" r="8" fill="#4D3FB0"/>
      <circle cx="930" cy="808" r="8" fill="#7667DF"/>
      <circle cx="998" cy="834" r="8" fill="#AB9FEE"/>
      <circle cx="1072" cy="742" r="8" fill="#4D3FB0"/>
      <circle cx="1158" cy="756" r="8" fill="#7667DF"/>
      <circle cx="1236" cy="690" r="8" fill="#4D3FB0"/>
      <circle cx="1318" cy="706" r="8" fill="#AB9FEE"/>
      <circle cx="1390" cy="650" r="8" fill="#4D3FB0"/>
      <rect x="846" y="730" width="104" height="16" rx="8" fill="#E8E2EE"/>
      <rect x="846" y="758" width="84" height="14" rx="7" fill="#E8E2EE"/>
      <rect x="1008" y="726" width="116" height="118" rx="24" fill="#F7F4FA" stroke="#E4DDE8"/>
      <rect x="1036" y="752" width="22" height="62" rx="11" fill="#D8D1E0"/>
      <rect x="1070" y="734" width="22" height="80" rx="11" fill="#AFA3F1"/>
      <rect x="1104" y="770" width="22" height="44" rx="11" fill="#6D5FDC"/>
      <rect x="1188" y="726" width="188" height="118" rx="24" fill="#F9F7FB" stroke="#E4DDE8"/>
      <rect x="1212" y="752" width="86" height="16" rx="8" fill="#E8E2EE"/>
      <rect x="1212" y="782" width="118" height="16" rx="8" fill="#E8E2EE"/>
      <rect x="1212" y="814" width="68" height="16" rx="8" fill="#E8E2EE"/>
      <circle cx="1340" cy="782" r="26" fill="#5C4CD0" fill-opacity="0.12"/>
      <path d="M1328 782H1352" stroke="#5C4CD0" stroke-width="4" stroke-linecap="round"/>
      <path d="M1340 770V794" stroke="#5C4CD0" stroke-width="4" stroke-linecap="round"/>
    </g>
  </g>

  <g opacity="0.78">
    <rect x="1266" y="466" width="120" height="116" rx="28" fill="#FBFAFD" stroke="#DED8E5"/>
    <rect x="1290" y="494" width="72" height="14" rx="7" fill="#ECE7F1"/>
    <rect x="1290" y="528" width="44" height="38" rx="19" fill="#5C4CD0" fill-opacity="0.14"/>
    <rect x="1342" y="528" width="20" height="38" rx="10" fill="#EEEAF3"/>
  </g>

  <g opacity="0.48">
    <path d="M1160 256L1242 338" stroke="#FFFFFF" stroke-width="2"/>
    <path d="M912 786L866 858" stroke="#FFFFFF" stroke-width="2"/>
    <path d="M1116 628L1232 744" stroke="#FFFFFF" stroke-width="2"/>
  </g>

  <rect width="1600" height="1100" filter="url(#grain)"/>
</svg>
