<svg xmlns="http://www.w3.org/2000/svg" viewBox="0 0 100 100" role="img" aria-labelledby="logo-title">
  <title id="logo-title">Creativv</title>
  <defs>
    <!-- Primary Mark Gradient - vibrant tech transition (Teal to Violet) -->
    <linearGradient id="mark-grad" x1="0%" y1="100%" x2="100%" y2="0%">
      <stop offset="0%" stop-color="#2DD4BF"/>
      <stop offset="40%" stop-color="#8B5CF6"/>
      <stop offset="100%" stop-color="#C084FC"/>
    </linearGradient>

    <!-- Drop Shadow for depth -->
    <filter id="shadow" x="-20%" y="-20%" width="140%" height="140%">
      <feDropShadow dx="0" dy="8" stdDeviation="6" flood-color="#000000" flood-opacity="0.4"/>
    </filter>
  </defs>
  
  <!-- 
    The Mark: A continuous, abstract geometric knot/S-shape 
    Signifying connection, automation (infinity), and structure.
    Rotated 90 degrees as requested.
  -->
  <g transform="rotate(90 50 50)">
    <g filter="url(#shadow)" transform="translate(18, 20)">
      <!-- Main sweeping path -->
      <path 
        d="M 12 45 
           C 12 25, 25 10, 45 10
           C 60 10, 68 18, 68 18
           L 54 32
           C 54 32, 48 26, 42 26
           C 32 26, 28 32, 28 40
           C 28 50, 40 55, 50 60
           C 63 66, 72 75, 72 85
           C 72 105, 55 115, 35 115
           C 15 115, 5 105, 5 105
           L 18 92
           C 18 92, 25 99, 35 99
           C 48 99, 52 92, 52 85
           C 52 75, 42 70, 32 65
           C 18 58, 12 52, 12 45 Z" 
        fill="url(#mark-grad)" 
        transform="scale(0.7) translate(8, -12)"
      />
    </g>
  </g>
</svg>
