<svg width="1200" height="630" viewBox="0 0 1200 630" fill="none" xmlns="http://www.w3.org/2000/svg">
  <defs>
    <linearGradient id="bg" x1="80" y1="40" x2="1120" y2="590" gradientUnits="userSpaceOnUse">
      <stop stop-color="#090D18"/>
      <stop offset="0.5" stop-color="#111827"/>
      <stop offset="1" stop-color="#0A0F1E"/>
    </linearGradient>
    <linearGradient id="accent" x1="350" y1="140" x2="830" y2="500" gradientUnits="userSpaceOnUse">
      <stop stop-color="#FF7A18"/>
      <stop offset="0.48" stop-color="#9D7BF7"/>
      <stop offset="1" stop-color="#38D6C4"/>
    </linearGradient>
    <filter id="blur" x="0" y="0" width="1200" height="630" filterUnits="userSpaceOnUse" color-interpolation-filters="sRGB">
      <feGaussianBlur stdDeviation="72"/>
    </filter>
  </defs>

  <rect width="1200" height="630" rx="28" fill="url(#bg)"/>

  <g opacity="0.58" filter="url(#blur)">
    <circle cx="370" cy="170" r="120" fill="#FF7A18"/>
    <circle cx="640" cy="240" r="140" fill="#9D7BF7"/>
    <circle cx="810" cy="430" r="150" fill="#38D6C4"/>
  </g>

  <rect x="42" y="42" width="1116" height="546" rx="26" fill="rgba(255,255,255,0.02)" stroke="rgba(255,255,255,0.08)"/>

  <rect x="420" y="92" width="360" height="360" rx="102" fill="#0D1424" stroke="rgba(255,255,255,0.09)"/>
  <path d="M554 204C573 175 603 160 641 160C684 160 714 174 733 203L688 242C675 225 661 219 642 219C615 219 597 236 597 259C597 282 616 295 652 310C709 330 742 357 742 404C742 454 702 486 640 486C588 486 550 468 527 436L575 399C588 421 608 432 640 432C673 432 691 418 691 398C691 375 671 359 633 346C577 327 544 302 544 260C544 240 547 220 554 204Z" fill="url(#accent)"/>

  <text x="600" y="525" text-anchor="middle" fill="white" font-family="Inter, Arial, sans-serif" font-size="34" font-weight="700" letter-spacing="0.4">servicioscreativos.online</text>
  <text x="600" y="564" text-anchor="middle" fill="#9AA6BF" font-family="Inter, Arial, sans-serif" font-size="22" font-weight="500" letter-spacing="0.3">Websites · Automatización · Software</text>
</svg>
