<svg width="1200" height="630" viewBox="0 0 1200 630" fill="none" xmlns="http://www.w3.org/2000/svg">
  <defs>
    <linearGradient id="bg" x1="80" y1="40" x2="1120" y2="590" gradientUnits="userSpaceOnUse">
      <stop stop-color="#090D18"/>
      <stop offset="0.5" stop-color="#111827"/>
      <stop offset="1" stop-color="#0A0F1E"/>
    </linearGradient>
    <linearGradient id="accent" x1="350" y1="140" x2="830" y2="500" gradientUnits="userSpaceOnUse">
      <stop stop-color="#FF7A18"/>
      <stop offset="0.48" stop-color="#9D7BF7"/>
      <stop offset="1" stop-color="#38D6C4"/>
    </linearGradient>
    <filter id="blur" x="0" y="0" width="1200" height="630" filterUnits="userSpaceOnUse" color-interpolation-filters="sRGB">
      <feGaussianBlur stdDeviation="72"/>
    </filter>
    <filter id="glow" x="-40%" y="-40%" width="180%" height="180%">
      <feGaussianBlur stdDeviation="10" result="blur"/>
      <feMerge>
        <feMergeNode in="blur"/>
        <feMergeNode in="SourceGraphic"/>
      </feMerge>
    </filter>
  </defs>

  <rect width="1200" height="630" rx="28" fill="url(#bg)"/>

  <g opacity="0.58" filter="url(#blur)">
    <circle cx="370" cy="170" r="120" fill="#FF7A18"/>
    <circle cx="640" cy="240" r="140" fill="#9D7BF7"/>
    <circle cx="810" cy="430" r="150" fill="#38D6C4"/>
  </g>

  <rect x="42" y="42" width="1116" height="546" rx="26" fill="rgba(255,255,255,0.02)" stroke="rgba(255,255,255,0.08)"/>

  <g filter="url(#glow)" transform="translate(600 270) scale(-4.8 4.8) translate(-50 -50)">
    <path d="M34 33C38 27 44 24 52 24C61 24 67 27 71 33L61 41C58 37 55 35 51 35C45 35 41 39 41 44C41 49 45 52 53 55C65 59 72 65 72 75C72 85 64 92 51 92C40 92 32 88 27 81L38 73C41 78 45 81 51 81C58 81 62 78 62 73C62 68 58 65 50 62C38 58 31 52 31 43C31 39 32 36 34 33Z" fill="url(#accent)"/>
  </g>

  <text x="600" y="525" text-anchor="middle" fill="white" font-family="Inter, Arial, sans-serif" font-size="34" font-weight="700" letter-spacing="0.4">servicioscreativos.online</text>
  <text x="600" y="564" text-anchor="middle" fill="#9AA6BF" font-family="Inter, Arial, sans-serif" font-size="22" font-weight="500" letter-spacing="0.3">Websites · Automatización · Software</text>
</svg>
