<svg width="1200" height="630" viewBox="0 0 1200 630" fill="none" xmlns="http://www.w3.org/2000/svg">
  <defs>
    <linearGradient id="bg" x1="80" y1="40" x2="1120" y2="590" gradientUnits="userSpaceOnUse">
      <stop stop-color="#0B1020"/>
      <stop offset="0.55" stop-color="#151B2F"/>
      <stop offset="1" stop-color="#0A0D18"/>
    </linearGradient>
    <linearGradient id="accent" x1="240" y1="90" x2="980" y2="510" gradientUnits="userSpaceOnUse">
      <stop stop-color="#FF7A18"/>
      <stop offset="0.5" stop-color="#9D7BF7"/>
      <stop offset="1" stop-color="#38D6C4"/>
    </linearGradient>
    <filter id="blurA" x="0" y="0" width="1200" height="630" filterUnits="userSpaceOnUse" color-interpolation-filters="sRGB">
      <feGaussianBlur stdDeviation="90"/>
    </filter>
    <filter id="blurB" x="0" y="0" width="1200" height="630" filterUnits="userSpaceOnUse" color-interpolation-filters="sRGB">
      <feGaussianBlur stdDeviation="38"/>
    </filter>
  </defs>

  <rect width="1200" height="630" rx="28" fill="url(#bg)"/>

  <g opacity="0.62" filter="url(#blurA)">
    <circle cx="250" cy="175" r="135" fill="#FF7A18"/>
    <circle cx="920" cy="160" r="120" fill="#9D7BF7"/>
    <circle cx="830" cy="500" r="150" fill="#38D6C4"/>
  </g>

  <rect x="42" y="42" width="1116" height="546" rx="26" fill="rgba(255,255,255,0.02)" stroke="rgba(255,255,255,0.08)"/>

  <g opacity="0.15">
    <path d="M74 115H1127" stroke="white" stroke-width="1"/>
    <path d="M74 185H1127" stroke="white" stroke-width="1"/>
    <path d="M74 255H1127" stroke="white" stroke-width="1"/>
    <path d="M74 325H1127" stroke="white" stroke-width="1"/>
    <path d="M74 395H1127" stroke="white" stroke-width="1"/>
    <path d="M74 465H1127" stroke="white" stroke-width="1"/>
    <path d="M74 535H1127" stroke="white" stroke-width="1"/>
    <path d="M160 60V570" stroke="white" stroke-width="1"/>
    <path d="M325 60V570" stroke="white" stroke-width="1"/>
    <path d="M490 60V570" stroke="white" stroke-width="1"/>
    <path d="M655 60V570" stroke="white" stroke-width="1"/>
    <path d="M820 60V570" stroke="white" stroke-width="1"/>
    <path d="M985 60V570" stroke="white" stroke-width="1"/>
  </g>

  <g filter="url(#blurB)" opacity="0.35">
    <rect x="72" y="72" width="280" height="280" rx="84" fill="url(#accent)"/>
  </g>

  <rect x="86" y="88" width="236" height="236" rx="72" fill="#0E1527" stroke="rgba(255,255,255,0.09)"/>
  <path d="M175 162C189 141 211 130 239 130C271 130 292 141 307 161L273 190C264 177 253 172 239 172C219 172 206 184 206 201C206 218 220 228 247 238C290 254 315 274 315 309C315 346 285 369 239 369C200 369 171 356 154 332L190 304C200 321 214 329 239 329C263 329 276 319 276 304C276 287 262 276 234 266C192 251 167 232 167 201C167 186 170 173 175 162Z" fill="url(#accent)"/>

  <text x="362" y="150" fill="#D1D9E8" font-family="Inter, Arial, sans-serif" font-size="18" font-weight="700" letter-spacing="2.6">ALL0K LLC</text>
  <text x="362" y="208" fill="white" font-family="Inter, Arial, sans-serif" font-size="44" font-weight="800">servicioscreativos.online</text>

  <text x="362" y="292" fill="white" font-family="Inter, Arial, sans-serif" font-size="64" font-weight="800">Websites, automatización</text>
  <text x="362" y="364" fill="white" font-family="Inter, Arial, sans-serif" font-size="64" font-weight="800">y software para</text>
  <text x="362" y="436" fill="url(#accent)" font-family="Inter, Arial, sans-serif" font-size="64" font-weight="800">negocios que quieren crecer</text>

  <text x="362" y="495" fill="#B2BDD3" font-family="Inter, Arial, sans-serif" font-size="28" font-weight="500">Proyectos reales · UX cuidada · IA · Dashboards · Integraciones · WhatsApp</text>

  <g>
    <rect x="893" y="470" width="217" height="62" rx="20" fill="rgba(255,255,255,0.06)" stroke="rgba(255,255,255,0.1)"/>
    <text x="930" y="509" fill="white" font-family="Inter, Arial, sans-serif" font-size="24" font-weight="700">Ver portfolio</text>
    <path d="M1058 501H1086" stroke="url(#accent)" stroke-width="4" stroke-linecap="round"/>
    <path d="M1072 487L1086 501L1072 515" stroke="url(#accent)" stroke-width="4" stroke-linecap="round" stroke-linejoin="round"/>
  </g>
</svg>
